<svg xmlns="http://www.w3.org/2000/svg" viewBox="0 0 40.2 67.82"><defs><style>.cls-1{fill:#8d5532;}</style></defs><g id="Capa_2" data-name="Capa 2"><g id="Capa_1-2" data-name="Capa 1"><path class="cls-1" d="M37.88,25.41A9.23,9.23,0,0,0,31,22.3H28.53V19a3.12,3.12,0,0,0-3.12-3.11h-1l1.27-9.54a5.64,5.64,0,1,0-11.18,0l.43,3.23a1,1,0,0,0,2-.26l-.43-3.24a3.65,3.65,0,1,1,7.24,0l-1.3,9.81H17.78l-.3-2.33a1,1,0,0,0-1.12-.85,1,1,0,0,0-.85,1.12l.27,2.06h-1A3.12,3.12,0,0,0,11.67,19V22.3H9.24A9.23,9.23,0,0,0,.07,32.65L3.79,63.21A5.25,5.25,0,0,0,9,67.82H31.2a5.25,5.25,0,0,0,5.21-4.61l3.72-30.56a9.25,9.25,0,0,0-2.25-7.24Zm-1.49,1.32a7.23,7.23,0,0,1,1.77,5.68l-.45,3.71a5.67,5.67,0,0,0-3.14,1.22,3.82,3.82,0,0,1-4.88,0,5.79,5.79,0,0,0-7.16,0,3.67,3.67,0,0,1-2.44.88,3.44,3.44,0,0,1-2.18-.7V24.28h4.38v8.57a1,1,0,0,0,2,0V24.28H31a7.22,7.22,0,0,1,5.43,2.45Zm-14.7,29a2.18,2.18,0,0,1,.6,1.51A2.16,2.16,0,0,1,21.5,59a2.19,2.19,0,0,1-3-3.19,1.67,1.67,0,0,0,0-2.3,2.16,2.16,0,0,1-.6-1.5V39.79a5.31,5.31,0,0,0,2.18.42,5.55,5.55,0,0,0,2.2-.42V52a2.16,2.16,0,0,1-.6,1.5,1.65,1.65,0,0,0,0,2.3ZM13.66,19a1.14,1.14,0,0,1,1.13-1.13H25.41A1.14,1.14,0,0,1,26.54,19V22.3H13.66V19ZM3.81,26.73a7.22,7.22,0,0,1,5.43-2.45h6.68V36.39a5.38,5.38,0,0,0-1.84-.29,5.59,5.59,0,0,0-3.58,1.24,3.67,3.67,0,0,1-2.44.88,3.61,3.61,0,0,1-2.43-.88,5.67,5.67,0,0,0-3.14-1.22L2,32.41a7.23,7.23,0,0,1,1.77-5.68ZM34.43,63a3.25,3.25,0,0,1-3.23,2.86H9A3.25,3.25,0,0,1,5.77,63l-3-24.83A3.82,3.82,0,0,1,4.48,39a5.64,5.64,0,0,0,3.58,1.24A5.59,5.59,0,0,0,11.64,39a3.62,3.62,0,0,1,2.44-.88,3.28,3.28,0,0,1,1.84.48V52a4.13,4.13,0,0,0,1,2.65,4.18,4.18,0,0,0,2.45,6.77,4.87,4.87,0,0,0,.76.06,4.18,4.18,0,0,0,3.24-6.83,4.17,4.17,0,0,0,1-2.65V38.56a3.33,3.33,0,0,1,1.83-.47,3.62,3.62,0,0,1,2.44.88,5.79,5.79,0,0,0,7.16,0,3.9,3.9,0,0,1,1.75-.83Z"/></g></g></svg>