<svg xmlns="http://www.w3.org/2000/svg" viewBox="0 0 38.07 81.41"><defs><style>.cls-1{fill:#8d5532;}</style></defs><g id="Capa_2" data-name="Capa 2"><g id="Capa_1-2" data-name="Capa 1"><path class="cls-1" d="M38.07,35.61a1.19,1.19,0,0,0-.72-1.1L34.1,33.12a1.19,1.19,0,0,0-.94,2.19l2.52,1.08A41.31,41.31,0,0,1,20.23,67.58V59.14a38,38,0,0,0,11.7-15.43,1.2,1.2,0,0,0-2.21-.91A35.62,35.62,0,0,1,20.23,56V47a38.29,38.29,0,0,0,8.33-9.26,1.19,1.19,0,1,0-2-1.28,35.69,35.69,0,0,1-6.33,7.42V36.18a23,23,0,0,0,4.91-5.42,1.2,1.2,0,0,0-.35-1.65,1.19,1.19,0,0,0-1.65.35A20.62,20.62,0,0,1,20.23,33V22.86a1.2,1.2,0,0,0-2.39,0V33a21,21,0,0,1-2.9-3.54,1.19,1.19,0,1,0-2,1.3,23.21,23.21,0,0,0,4.9,5.42V43.9a36,36,0,0,1-6.32-7.42,1.19,1.19,0,0,0-2,1.28A38.29,38.29,0,0,0,17.84,47v9A35.62,35.62,0,0,1,8.35,42.8a1.2,1.2,0,1,0-2.21.91,38.19,38.19,0,0,0,11.7,15.43V80.22a1.2,1.2,0,0,0,2.39,0v-9.6c11.35-8.62,17.84-21.35,17.84-35Z"/><path class="cls-1" d="M2.39,36.39l2.52-1.08a1.18,1.18,0,0,0,.71-1.24,34.69,34.69,0,0,1-.26-4.2A34.3,34.3,0,0,1,19,2.69,34.42,34.42,0,0,1,32.71,29.26a1.19,1.19,0,0,0,1.19,1.17h0a1.2,1.2,0,0,0,1.17-1.22A36.86,36.86,0,0,0,19.75.23a1.2,1.2,0,0,0-1.42,0A36.78,36.78,0,0,0,3,29.87c0,1.2.07,2.4.19,3.6l-2.44,1A1.19,1.19,0,0,0,0,35.61,43.35,43.35,0,0,0,13.1,66.49a1.18,1.18,0,0,0,.84.35,1.2,1.2,0,0,0,.84-2A41.06,41.06,0,0,1,2.39,36.39Z"/></g></g></svg>