<svg xmlns="http://www.w3.org/2000/svg" viewBox="0 0 70.73 70.73"><defs><style>.cls-1{fill:#8d5532;}</style></defs><g id="Capa_2" data-name="Capa 2"><g id="Capa_1-2" data-name="Capa 1"><path class="cls-1" d="M60.37,10.36a35.36,35.36,0,1,0-50,50,35.36,35.36,0,1,0,50-50ZM58.9,58.9A33.29,33.29,0,0,1,11.82,11.82,33.29,33.29,0,1,1,58.9,58.9Z"/><path class="cls-1" d="M57.24,13.49a30.91,30.91,0,0,0-42.06-1.55,1,1,0,1,0,1.35,1.56,28.82,28.82,0,0,1,39.86,2.12L52.9,18.67a2.44,2.44,0,0,0-1.3-1.89c-1.27-.57-2.83.25-4.64,2.44a33.2,33.2,0,0,0-4.33,7.26c-.27.6-.53,1.21-.77,1.81,0,0,0,0,0,0l-2.5,2.19a13.08,13.08,0,0,0-4-.61,13.22,13.22,0,0,0-5.5,1.19,38.17,38.17,0,0,0-1.75-4.61,33.2,33.2,0,0,0-4.33-7.26c-1.81-2.19-3.37-3-4.64-2.44s-1.68,2.29-1.24,5.09a33,33,0,0,0,2.58,8.05,36,36,0,0,0,3.59,6.31A13.18,13.18,0,0,0,22.54,40a1,1,0,0,0,2,.49A11.11,11.11,0,0,1,35.38,32a10.84,10.84,0,0,1,2.07.2L13,53.55a28.82,28.82,0,0,1,.53-37,1,1,0,1,0-1.56-1.35A30.92,30.92,0,0,0,55.55,58.79a1,1,0,1,0-1.35-1.57,28.81,28.81,0,0,1-39.87-2.11l8.61-7.52A13.22,13.22,0,1,0,46.66,36.24a35.77,35.77,0,0,0,3.6-6.32,33.43,33.43,0,0,0,2.58-8l.06-.45,4.86-4.24a28.8,28.8,0,0,1-.54,37A1,1,0,0,0,58,55.91a1,1,0,0,0,.78-.36,30.91,30.91,0,0,0-1.55-42.06Zm-31.86,21a33.89,33.89,0,0,1-3-5.39A32.26,32.26,0,0,1,20,21.93c-.38-2.12-.15-3,0-3.25.25,0,1.09.47,2.43,2.16a32.51,32.51,0,0,1,3.79,6.49A36.85,36.85,0,0,1,28,32.12a12.86,12.86,0,0,0-2.65,2.34ZM48.31,20.84c1.33-1.69,2.17-2.12,2.43-2.16a3.46,3.46,0,0,1,.18,1.72L45.67,25A27.64,27.64,0,0,1,48.31,20.84ZM33,49.8a.06.06,0,0,1,0-.07s0,0,.06,0h4.72s0,0,.06,0a.06.06,0,0,1,0,.07l-2.42,3.63Zm4.48,4.26L39.52,51a2.14,2.14,0,0,0-1.78-3.33H33A2.15,2.15,0,0,0,31.23,51l2.08,3.12a11.11,11.11,0,0,1-8.67-8l3.06-2.67v.79a1,1,0,1,0,2.07,0v-1.1a1,1,0,0,0-.62-.95l10.63-9.29a11.14,11.14,0,0,1-2.34,21.18Zm10.93-25a34.83,34.83,0,0,1-3,5.4,13.29,13.29,0,0,0-3.89-3.08l8.85-7.73A35.45,35.45,0,0,1,48.37,29.07Z"/><path class="cls-1" d="M42,42.08a1,1,0,0,0-1,1v1.1a1,1,0,1,0,2.07,0v-1.1A1,1,0,0,0,42,42.08Z"/></g></g></svg>